:FULLY-SPECIFIED
:DEGREES
118
root -0.567874014377594 -0.567874014377594 -0.567874014377594 -0.5678755879732001 -0.5678755879732001 -0.5678755879732001
lhipjoint -9.671654586443837e-08 -1.5341245206083327e-07 1.0672170578144923e-06
lfemur -31.179229579934173 7.255641653412845 -17.999353340471774
ltibia 36.015095719856994 -1.334868316702008e-06 6.31156802543106e-07
lfoot -13.804906850410264 1.205885883260558e-06 1.9556069565533571
ltoes -55.76957032794839 -4.4586511657677737e-07 2.7591986648177227e-06
rhipjoint 1.1005675908711953e-07 6.870210827458292e-07 -1.494104084495789e-06
rfemur -23.2804180406852 3.6219938215707557 8.908396314620544
rtibia 23.925292058719243 1.3090347829127882e-06 -2.163732672910378e-06
rfoot -21.45369077735446 7.855342603387327e-07 -14.125887321586783
rtoes -12.523599220609015 -1.720907047053832e-07 -1.2334563561279812e-06
lowerback 34.78234219731807 0.6436496532644687 -1.0815465812497675
upperback 2.460629649680219 0.9297526705788157 2.677639487206922
thorax -14.941655233975487 0.5625344867639559 3.1065755805271342
lowerneck -11.457395592112624 -2.029057957114028 -1.9248847656666397
upperneck 23.5797988923852 -3.0151462414105206 2.3060364286666197
head 9.370881229926802 -1.331763944747426 0.7745436119620046
lclavicle -1.4085775951116125e-07 5.4855408257763046e-08 -1.0938974842598547e-06
lhumerus 61.32072119851163 -17.93513248680073 72.46597799932832
lradius 34.60518758081545 -2.2047686474104945e-06 1.5801134075250488e-06
lwrist -6.061114865372653e-07 -34.900442998256764 1.4614867583486945e-07
lhand -4.562975323145072 2.6246558075710764e-07 -26.656099019086014
lfingers 7.125022823272814 9.845282338726802e-08 3.18924141240953e-07
lthumb 21.213298854421275 -1.2803152392500461e-07 2.20318914769186
rclavicle 1.398304276268298e-07 4.3880174074018323e-07 -1.3740421654916584e-06
rhumerus 59.145934325266204 8.92738167919224 -58.88508940086342
rradius 48.07387324668996 -3.0399556409923645e-06 -4.571114765082325e-06
rwrist 3.137217461151393e-07 34.87038675081412 7.01298821710856e-07
rhand -6.972260092956778 2.0321462048512455e-07 -36.68780446630613
rfingers 7.125022396385991 5.1024341088409163e-08 -3.1892353057445414e-07
rthumb 18.897492480477187 1.5447771905696147e-06 -65.78980959509936
119
root -0.567874014377594 -0.567874014377594 -0.567874014377594 -0.5678755879732001 -0.5678755879732001 -0.5678755879732001
lhipjoint -9.671654586443837e-08 -1.5341245206083327e-07 1.0672170578144923e-06
lfemur -28.07394896058499 4.954113789928669 -17.347901850267007
ltibia 31.554640682380168 -1.271805398033197e-06 -3.5551619385125366e-07
lfoot -13.446461084088934 1.557417071095875e-06 4.088181980067629
ltoes -55.24460540343579 -6.963566214024235e-08 1.4360724471109291e-06
rhipjoint 1.1005675908711953e-07 6.870210827458292e-07 -1.494104084495789e-06
rfemur -18.410954200235082 3.941154901107111 8.919092390860785
rtibia 15.521893464346409 1.156808754081453e-06 -3.1695647200393748e-06
rfoot -18.88046823397093 -6.94621030879405e-07 -16.218040004932448
rtoes -10.776903845104252 -8.751948092534379e-07 -1.06903073731605e-06
lowerback 34.57223874825931 0.4503690134923008 -1.0641982209230525
upperback 2.046720399420858 0.7009414401050943 2.7861447261353907
thorax -15.26694128565005 0.45747241022911406 3.2652129138596155
lowerneck -11.457395592112624 -2.029057957114028 -1.9248847656666397
upperneck 23.5797988923852 -3.0151462414105206 2.3060364286666197
head 9.370881229926802 -1.331763944747426 0.7745436119620046
lclavicle -1.4085775951116125e-07 5.4855408257763046e-08 -1.0938974842598547e-06
lhumerus 68.81158773675054 -12.730165485451357 76.38822779058647
lradius 30.278894534110602 -1.763314578510345e-06 2.5068934550460813e-06
lwrist -7.370300890021654e-07 -39.53916938816551 1.7771573193726975e-07
lhand -4.562975323145072 2.6246558075710764e-07 -26.656099019086014
lfingers 7.125022823272814 9.845282338726802e-08 3.18924141240953e-07
lthumb 21.213298854421275 -1.2803152392500461e-07 2.20318914769186
rclavicle 1.398304276268298e-07 4.3880174074018323e-07 -1.3740421654916584e-06
rhumerus 66.51404187355249 7.615047061312563 -57.63175651835525
rradius 43.19552333012966 -5.036984909050135e-07 -2.4313580802494424e-06
rwrist 3.079750690277961e-07 34.438131399000696 6.884557927959813e-07
rhand -6.972260092956778 2.0321462048512455e-07 -36.68780446630613
rfingers 7.125022396385991 5.1024341088409163e-08 -3.1892353057445414e-07
rthumb 18.897492480477187 1.5447771905696147e-06 -65.78980959509936
120
root -0.567874014377594 -0.567874014377594 -0.567874014377594 -0.5678755879732001 -0.5678755879732001 -0.5678755879732001
lhipjoint -9.671654586443837e-08 -1.5341245206083327e-07 1.0672170578144923e-06
lfemur -25.30482634652174 2.6674620784567797 -16.714225927377196
ltibia 27.873334351830668 -1.6446549533430533e-06 -5.013995350923768e-07
lfoot -13.434616682294486 2.1338409549031103e-06 6.16744310824172
ltoes -54.55934959948134 -9.705866159263905e-07 7.788277681818362e-07
rhipjoint 1.1005675908711953e-07 6.870210827458292e-07 -1.494104084495789e-06
rfemur -14.388520901778467 3.905132483424464 9.07341197742076
rtibia 8.951948162089485 5.121509294709713e-07 -2.450020862676022e-06
rfoot -16.678268396491664 -1.4607556124385196e-07 -17.444386810029897
rtoes -9.26452237794501 1.210780680582018e-07 -9.024993368606157e-07
lowerback 33.67217691000254 0.33357283204593563 -1.2064983820910982
upperback 1.7288162881351958 0.4993006487888308 2.8010891800393787
thorax -15.218477678394226 0.37500467950995364 3.428577591871392
lowerneck -11.457395592112624 -2.029057957114028 -1.9248847656666397
upperneck 23.5797988923852 -3.0151462414105206 2.3060364286666197
head 9.370881229926802 -1.331763944747426 0.7745436119620046
lclavicle -1.4085775951116125e-07 5.4855408257763046e-08 -1.0938974842598547e-06
lhumerus 73.93221470845495 -6.40009642684528 79.95043782012576
lradius 26.673637237327316 -1.919154226348572e-06 2.4161679546462724e-06
lwrist -9.365811430496807e-07 -45.26023487471115 2.25833707602195e-07
lhand -4.562975323145072 2.6246558075710764e-07 -26.656099019086014
lfingers 7.125022823272814 9.845282338726802e-08 3.18924141240953e-07
lthumb 21.213298854421275 -1.2803152392500461e-07 2.20318914769186
rclavicle 1.398304276268298e-07 4.3880174074018323e-07 -1.3740421654916584e-06
rhumerus 71.17964847293982 4.732772972137943 -57.08586389422574
rradius 38.849528602763904 -1.860293710969285e-06 -2.962583992033711e-06
rwrist 3.2125711626646267e-07 35.427579922925425 7.181479755247525e-07
rhand -6.972260092956778 2.0321462048512455e-07 -36.68780446630613
rfingers 7.125022396385991 5.1024341088409163e-08 -3.1892353057445414e-07
rthumb 18.897492480477187 1.5447771905696147e-06 -65.78980959509936
121
root -0.567874014377594 -0.567874014377594 -0.567874014377594 -0.5678755879732001 -0.5678755879732001 -0.5678755879732001
lhipjoint -9.671654586443837e-08 -1.5341245206083327e-07 1.0672170578144923e-06
lfemur -22.9505386867938 0.6814085931827388 -16.138381216189885
ltibia 25.077297377342983 -9.880467924612522e-07 -2.179053074033301e-06
lfoot -13.585713273339861 8.959771133197444e-07 7.98167710180686
ltoes -53.86722604031644 2.8922002507101697e-07 1.1709806950755558e-06
rhipjoint 1.1005675908711953e-07 6.870210827458292e-07 -1.494104084495789e-06
rfemur -11.338840583594127 3.8358607048621947 9.31647194299848
rtibia 4.419734303418857 2.0740554833335794e-07 -1.6592463204441098e-06
rfoot -15.065428507019872 2.4860024523429813e-07 -18.08171346903108
rtoes -8.019884326250265 2.3231392237683348e-07 -7.155081660280126e-07
lowerback 32.23200420274867 0.29622533098387943 -1.4052845278602666
upperback 1.6055721413080744 0.36041547548408576 2.7200146211479157
thorax -14.776371486250348 0.326496729385376 3.5251432332438557
lowerneck -11.457395592112624 -2.029057957114028 -1.9248847656666397
upperneck 23.5797988923852 -3.0151462414105206 2.3060364286666197
head 9.370881229926802 -1.331763944747426 0.7745436119620046
lclavicle -1.4085775951116125e-07 5.4855408257763046e-08 -1.0938974842598547e-06
lhumerus 76.45218568197447 0.20087251509655613 82.28095983663664
lradius 24.06123331377001 -1.028419786699127e-06 1.7972476874069424e-06
lwrist -1.1785962152048521e-06 -50.61725469358971 2.841892272313776e-07
lhand -4.562975323145072 2.6246558075710764e-07 -26.656099019086014
lfingers 7.125022823272814 9.845282338726802e-08 3.18924141240953e-07
lthumb 21.213298854421275 -1.2803152392500461e-07 2.20318914769186
rclavicle 1.398304276268298e-07 4.3880174074018323e-07 -1.3740421654916584e-06
rhumerus 72.88709331260544 0.5904448808684495 -56.67010344925789
rradius 35.4710199260467 -1.5270318327797942e-06 -3.0224616742445667e-06
rwrist 3.468305315716135e-07 37.23822892094995 7.753127718145075e-07
rhand -6.972260092956778 2.0321462048512455e-07 -36.68780446630613
rfingers 7.125022396385991 5.1024341088409163e-08 -3.1892353057445414e-07
rthumb 18.897492480477187 1.5447771905696147e-06 -65.78980959509936
